<svg xmlns="http://www.w3.org/2000/svg" width="40" zoomAndPan="magnify" viewBox="0 0 30 30.000001" height="40"
     preserveAspectRatio="xMidYMid meet" version="1.0">
    <defs>
        <g/>
        <clipPath id="id1">
            <path d="M 2.265625 4.5 L 27.667969 4.5 L 27.667969 21.195312 L 2.265625 21.195312 Z M 2.265625 4.5 "
                  clip-rule="nonzero"/>
        </clipPath>
    </defs>
    <g clip-path="url(#id1)">
        <path fill="#29abe2"
              d="M 2.363281 14.835938 C 2.355469 14.964844 2.351562 15.097656 2.351562 15.230469 C 2.347656 15.8125 2.425781 16.382812 2.585938 16.9375 C 2.746094 17.496094 2.980469 18.015625 3.289062 18.503906 C 3.597656 18.992188 3.96875 19.421875 4.402344 19.796875 C 4.835938 20.175781 5.308594 20.480469 5.828125 20.714844 L 8.539062 17.945312 C 8.480469 17.808594 8.449219 17.667969 8.449219 17.523438 C 8.453125 17.375 8.480469 17.234375 8.542969 17.101562 C 8.601562 16.96875 8.6875 16.855469 8.796875 16.757812 C 8.90625 16.664062 9.03125 16.59375 9.167969 16.554688 C 9.304688 16.515625 9.445312 16.503906 9.589844 16.527344 C 9.730469 16.546875 9.863281 16.597656 9.980469 16.679688 C 10.101562 16.757812 10.203125 16.859375 10.277344 16.984375 C 10.355469 17.109375 10.40625 17.242188 10.425781 17.386719 C 10.445312 17.53125 10.433594 17.675781 10.394531 17.816406 C 10.351562 17.957031 10.285156 18.085938 10.191406 18.195312 C 10.097656 18.304688 9.984375 18.390625 9.855469 18.453125 C 9.722656 18.511719 9.585938 18.542969 9.441406 18.542969 C 9.34375 18.542969 9.25 18.53125 9.160156 18.5 L 6.695312 21.023438 C 7.003906 21.105469 7.316406 21.164062 7.632812 21.195312 L 15.007812 21.195312 L 15.007812 18.089844 C 14.871094 18.027344 14.75 17.933594 14.65625 17.8125 C 14.558594 17.695312 14.492188 17.558594 14.457031 17.40625 C 14.421875 17.257812 14.417969 17.105469 14.449219 16.953125 C 14.484375 16.800781 14.546875 16.664062 14.640625 16.542969 C 14.734375 16.417969 14.851562 16.324219 14.988281 16.257812 C 15.125 16.1875 15.269531 16.152344 15.421875 16.152344 C 15.574219 16.152344 15.714844 16.1875 15.855469 16.257812 C 15.992188 16.324219 16.105469 16.417969 16.199219 16.542969 C 16.292969 16.664062 16.355469 16.800781 16.390625 16.953125 C 16.421875 17.105469 16.421875 17.257812 16.382812 17.40625 C 16.347656 17.558594 16.28125 17.695312 16.183594 17.8125 C 16.089844 17.933594 15.972656 18.027344 15.832031 18.089844 L 15.832031 21.195312 L 21.589844 21.195312 C 22.191406 21.191406 22.78125 21.097656 23.355469 20.910156 C 23.933594 20.726562 24.464844 20.453125 24.960938 20.097656 C 25.453125 19.742188 25.882812 19.320312 26.25 18.828125 C 26.613281 18.335938 26.898438 17.800781 27.101562 17.21875 L 23.511719 17.21875 L 23.511719 18.023438 C 23.652344 18.085938 23.769531 18.179688 23.867188 18.300781 C 23.960938 18.417969 24.027344 18.554688 24.066406 18.707031 C 24.101562 18.855469 24.101562 19.007812 24.070312 19.160156 C 24.039062 19.3125 23.972656 19.449219 23.878906 19.570312 C 23.785156 19.695312 23.671875 19.789062 23.535156 19.859375 C 23.398438 19.925781 23.253906 19.960938 23.101562 19.960938 C 22.949219 19.960938 22.804688 19.925781 22.667969 19.859375 C 22.53125 19.789062 22.414062 19.695312 22.320312 19.570312 C 22.226562 19.449219 22.164062 19.3125 22.132812 19.160156 C 22.097656 19.007812 22.101562 18.855469 22.136719 18.707031 C 22.171875 18.554688 22.238281 18.417969 22.335938 18.300781 C 22.433594 18.179688 22.550781 18.085938 22.6875 18.023438 L 22.6875 17.21875 L 20.671875 17.21875 C 20.609375 17.359375 20.519531 17.480469 20.402344 17.578125 C 20.285156 17.679688 20.152344 17.746094 20.003906 17.78125 C 19.855469 17.820312 19.710938 17.820312 19.558594 17.789062 C 19.410156 17.753906 19.277344 17.691406 19.160156 17.59375 C 19.039062 17.496094 18.945312 17.378906 18.878906 17.238281 C 18.8125 17.101562 18.78125 16.953125 18.78125 16.796875 C 18.78125 16.640625 18.8125 16.492188 18.878906 16.351562 C 18.945312 16.214844 19.039062 16.09375 19.160156 16 C 19.277344 15.902344 19.410156 15.839844 19.558594 15.804688 C 19.710938 15.773438 19.855469 15.773438 20.003906 15.808594 C 20.152344 15.847656 20.285156 15.914062 20.402344 16.015625 C 20.519531 16.113281 20.609375 16.234375 20.671875 16.375 L 27.332031 16.375 C 27.410156 15.972656 27.449219 15.566406 27.445312 15.152344 C 27.441406 14.742188 27.394531 14.335938 27.3125 13.933594 C 27.226562 13.535156 27.101562 13.144531 26.9375 12.769531 C 26.773438 12.394531 26.574219 12.039062 26.339844 11.707031 C 26.105469 11.371094 25.839844 11.066406 25.542969 10.789062 C 25.25 10.511719 24.925781 10.269531 24.582031 10.058594 C 24.238281 9.847656 23.875 9.675781 23.496094 9.542969 C 23.113281 9.410156 22.726562 9.316406 22.328125 9.265625 L 22.304688 9.261719 L 21.304688 9.757812 L 23.5625 12.066406 C 23.695312 12.015625 23.832031 11.996094 23.972656 12.003906 C 24.113281 12.015625 24.25 12.050781 24.375 12.121094 C 24.5 12.1875 24.605469 12.28125 24.691406 12.394531 C 24.777344 12.507812 24.839844 12.636719 24.871094 12.777344 C 24.90625 12.917969 24.910156 13.058594 24.882812 13.203125 C 24.859375 13.34375 24.804688 13.476562 24.722656 13.59375 C 24.640625 13.714844 24.539062 13.8125 24.417969 13.886719 C 24.296875 13.960938 24.167969 14.007812 24.027344 14.023438 C 23.886719 14.042969 23.746094 14.027344 23.613281 13.984375 C 23.476562 13.941406 23.355469 13.871094 23.25 13.773438 C 23.144531 13.679688 23.0625 13.5625 23.003906 13.433594 C 22.945312 13.300781 22.917969 13.160156 22.917969 13.015625 C 22.917969 12.894531 22.9375 12.777344 22.976562 12.664062 L 20.519531 10.144531 L 17.605469 11.585938 C 17.621094 11.65625 17.625 11.722656 17.625 11.789062 C 17.625 11.941406 17.597656 12.082031 17.535156 12.21875 C 17.472656 12.351562 17.386719 12.46875 17.277344 12.566406 C 17.164062 12.660156 17.039062 12.730469 16.898438 12.769531 C 16.757812 12.808594 16.617188 12.816406 16.472656 12.792969 C 16.328125 12.769531 16.199219 12.714844 16.078125 12.628906 C 15.957031 12.546875 15.859375 12.441406 15.785156 12.3125 C 15.707031 12.183594 15.664062 12.046875 15.648438 11.898438 C 15.632812 11.75 15.648438 11.605469 15.695312 11.464844 C 15.742188 11.324219 15.816406 11.199219 15.917969 11.089844 C 16.019531 10.984375 16.136719 10.902344 16.273438 10.847656 C 16.40625 10.792969 16.546875 10.769531 16.695312 10.777344 C 16.839844 10.789062 16.976562 10.828125 17.105469 10.898438 L 18.308594 10.304688 L 15.90625 7.847656 C 15.820312 7.871094 15.734375 7.882812 15.648438 7.882812 C 15.503906 7.882812 15.363281 7.851562 15.234375 7.792969 C 15.101562 7.730469 14.988281 7.644531 14.894531 7.53125 C 14.800781 7.421875 14.734375 7.292969 14.691406 7.152344 C 14.652344 7.011719 14.644531 6.867188 14.664062 6.71875 C 14.683594 6.574219 14.734375 6.4375 14.8125 6.316406 C 14.894531 6.191406 14.992188 6.089844 15.113281 6.011719 C 15.238281 5.933594 15.371094 5.882812 15.511719 5.863281 C 15.65625 5.84375 15.796875 5.855469 15.933594 5.898438 C 16.074219 5.941406 16.195312 6.011719 16.304688 6.109375 C 16.410156 6.207031 16.496094 6.324219 16.554688 6.460938 C 16.609375 6.59375 16.640625 6.734375 16.636719 6.882812 C 16.636719 7.03125 16.601562 7.171875 16.542969 7.304688 L 19.09375 9.914062 L 21.851562 8.546875 C 21.640625 7.949219 21.339844 7.394531 20.957031 6.890625 C 20.570312 6.390625 20.121094 5.960938 19.601562 5.605469 C 19.082031 5.25 18.523438 4.984375 17.921875 4.8125 C 17.320312 4.640625 16.707031 4.570312 16.082031 4.601562 C 15.457031 4.628906 14.855469 4.757812 14.269531 4.984375 C 13.6875 5.210938 13.152344 5.523438 12.667969 5.925781 C 12.179688 6.328125 11.769531 6.796875 11.429688 7.332031 C 11.089844 7.871094 10.84375 8.449219 10.683594 9.066406 L 14.132812 13.269531 C 14.277344 13.234375 14.425781 13.230469 14.574219 13.265625 C 14.722656 13.296875 14.855469 13.363281 14.976562 13.457031 C 15.09375 13.554688 15.1875 13.671875 15.253906 13.8125 C 15.320312 13.953125 15.351562 14.097656 15.351562 14.253906 C 15.351562 14.410156 15.320312 14.554688 15.253906 14.695312 C 15.1875 14.835938 15.09375 14.953125 14.976562 15.050781 C 14.855469 15.144531 14.722656 15.210938 14.574219 15.242188 C 14.425781 15.277344 14.277344 15.273438 14.132812 15.238281 C 13.984375 15.199219 13.851562 15.132812 13.734375 15.035156 C 13.617188 14.9375 13.527344 14.816406 13.464844 14.675781 C 13.402344 14.535156 13.371094 14.386719 13.375 14.230469 C 13.378906 14.078125 13.414062 13.929688 13.484375 13.792969 L 12.355469 12.417969 L 11.269531 13.527344 C 11.320312 13.675781 11.339844 13.824219 11.324219 13.976562 C 11.3125 14.132812 11.265625 14.277344 11.183594 14.410156 C 11.105469 14.539062 11.003906 14.648438 10.875 14.730469 C 10.746094 14.816406 10.609375 14.867188 10.457031 14.886719 C 10.308594 14.902344 10.160156 14.886719 10.015625 14.835938 C 9.875 14.785156 9.75 14.707031 9.640625 14.597656 C 9.535156 14.488281 9.457031 14.359375 9.40625 14.210938 C 9.355469 14.066406 9.339844 13.914062 9.359375 13.761719 C 9.378906 13.605469 9.425781 13.464844 9.507812 13.335938 C 9.589844 13.203125 9.695312 13.097656 9.824219 13.015625 C 9.953125 12.9375 10.09375 12.886719 10.246094 12.875 C 10.398438 12.859375 10.542969 12.878906 10.683594 12.933594 L 11.824219 11.765625 L 9.992188 9.53125 C 9.414062 9.339844 8.816406 9.246094 8.207031 9.246094 C 7.535156 9.246094 6.882812 9.363281 6.25 9.589844 C 5.621094 9.820312 5.042969 10.152344 4.523438 10.582031 C 4 11.015625 3.566406 11.523438 3.214844 12.109375 C 2.863281 12.691406 2.621094 13.320312 2.480469 13.992188 L 5.449219 13.992188 C 5.511719 13.851562 5.601562 13.730469 5.71875 13.628906 C 5.835938 13.53125 5.96875 13.464844 6.117188 13.425781 C 6.265625 13.390625 6.414062 13.390625 6.5625 13.421875 C 6.710938 13.457031 6.84375 13.519531 6.964844 13.617188 C 7.085938 13.710938 7.175781 13.832031 7.242188 13.96875 C 7.308594 14.109375 7.34375 14.257812 7.34375 14.414062 C 7.34375 14.570312 7.308594 14.714844 7.242188 14.855469 C 7.175781 14.996094 7.085938 15.113281 6.964844 15.210938 C 6.84375 15.308594 6.710938 15.371094 6.5625 15.40625 C 6.414062 15.4375 6.265625 15.4375 6.117188 15.398438 C 5.96875 15.363281 5.835938 15.292969 5.71875 15.195312 C 5.601562 15.097656 5.511719 14.976562 5.449219 14.835938 Z M 2.363281 14.835938 "
              fill-opacity="1" fill-rule="nonzero"/>
    </g>
    <g fill="#29abe2" fill-opacity="1">
        <g transform="translate(11.787566, 25.374197)">
            <g>
                <path d="M 0.578125 -1.1875 L 0.578125 0 L 0.140625 0 L 0.140625 -1.921875 L 0.578125 -1.921875 L 1.34375 -0.734375 L 1.34375 -1.921875 L 1.78125 -1.921875 L 1.78125 0 L 1.34375 0 Z M 0.578125 -1.1875 "/>
            </g>
        </g>
    </g>
    <g fill="#29abe2" fill-opacity="1">
        <g transform="translate(13.706016, 25.374197)">
            <g>
                <path d="M 0.53125 -1.1875 L 0.53125 -0.625 C 0.53125 -0.507812 0.546875 -0.425781 0.578125 -0.375 C 0.617188 -0.320312 0.679688 -0.296875 0.765625 -0.296875 C 0.847656 -0.296875 0.90625 -0.320312 0.9375 -0.375 C 0.976562 -0.425781 1 -0.507812 1 -0.625 L 1 -1.1875 L 1.40625 -1.1875 L 1.40625 -0.53125 C 1.40625 -0.332031 1.351562 -0.1875 1.25 -0.09375 C 1.144531 -0.0078125 0.976562 0.03125 0.75 0.03125 C 0.53125 0.03125 0.367188 -0.0078125 0.265625 -0.09375 C 0.160156 -0.1875 0.109375 -0.332031 0.109375 -0.53125 L 0.109375 -1.1875 Z M 0.53125 -1.1875 "/>
            </g>
        </g>
    </g>
    <g fill="#29abe2" fill-opacity="1">
        <g transform="translate(15.229627, 25.374197)">
            <g>
                <path d="M 0.78125 -0.890625 C 0.695312 -0.890625 0.625 -0.859375 0.5625 -0.796875 C 0.507812 -0.742188 0.484375 -0.675781 0.484375 -0.59375 C 0.484375 -0.507812 0.507812 -0.4375 0.5625 -0.375 C 0.625 -0.320312 0.695312 -0.296875 0.78125 -0.296875 C 0.8125 -0.296875 0.84375 -0.300781 0.875 -0.3125 C 0.914062 -0.320312 0.941406 -0.332031 0.953125 -0.34375 L 0.96875 -0.359375 L 1.109375 -0.078125 C 1.097656 -0.0664062 1.082031 -0.0546875 1.0625 -0.046875 C 1.050781 -0.0351562 1.007812 -0.0195312 0.9375 0 C 0.863281 0.0195312 0.789062 0.03125 0.71875 0.03125 C 0.539062 0.03125 0.382812 -0.0234375 0.25 -0.140625 C 0.113281 -0.265625 0.046875 -0.414062 0.046875 -0.59375 C 0.046875 -0.769531 0.113281 -0.921875 0.25 -1.046875 C 0.382812 -1.171875 0.539062 -1.234375 0.71875 -1.234375 C 0.789062 -1.234375 0.859375 -1.222656 0.921875 -1.203125 C 0.992188 -1.179688 1.046875 -1.160156 1.078125 -1.140625 L 1.109375 -1.125 L 0.96875 -0.828125 C 0.925781 -0.867188 0.863281 -0.890625 0.78125 -0.890625 Z M 0.78125 -0.890625 "/>
            </g>
        </g>
    </g>
    <g fill="#29abe2" fill-opacity="1">
        <g transform="translate(16.370014, 25.374197)">
            <g>
                <path d="M 0.78125 -0.890625 C 0.695312 -0.890625 0.625 -0.859375 0.5625 -0.796875 C 0.507812 -0.742188 0.484375 -0.675781 0.484375 -0.59375 C 0.484375 -0.507812 0.507812 -0.4375 0.5625 -0.375 C 0.625 -0.320312 0.695312 -0.296875 0.78125 -0.296875 C 0.8125 -0.296875 0.84375 -0.300781 0.875 -0.3125 C 0.914062 -0.320312 0.941406 -0.332031 0.953125 -0.34375 L 0.96875 -0.359375 L 1.109375 -0.078125 C 1.097656 -0.0664062 1.082031 -0.0546875 1.0625 -0.046875 C 1.050781 -0.0351562 1.007812 -0.0195312 0.9375 0 C 0.863281 0.0195312 0.789062 0.03125 0.71875 0.03125 C 0.539062 0.03125 0.382812 -0.0234375 0.25 -0.140625 C 0.113281 -0.265625 0.046875 -0.414062 0.046875 -0.59375 C 0.046875 -0.769531 0.113281 -0.921875 0.25 -1.046875 C 0.382812 -1.171875 0.539062 -1.234375 0.71875 -1.234375 C 0.789062 -1.234375 0.859375 -1.222656 0.921875 -1.203125 C 0.992188 -1.179688 1.046875 -1.160156 1.078125 -1.140625 L 1.109375 -1.125 L 0.96875 -0.828125 C 0.925781 -0.867188 0.863281 -0.890625 0.78125 -0.890625 Z M 0.78125 -0.890625 "/>
            </g>
        </g>
    </g>
    <g fill="#29abe2" fill-opacity="1">
        <g transform="translate(17.5104, 25.374197)">
            <g>
                <path d="M 0.171875 -1.859375 C 0.222656 -1.910156 0.28125 -1.9375 0.34375 -1.9375 C 0.414062 -1.9375 0.472656 -1.910156 0.515625 -1.859375 C 0.566406 -1.804688 0.59375 -1.75 0.59375 -1.6875 C 0.59375 -1.625 0.566406 -1.566406 0.515625 -1.515625 C 0.472656 -1.460938 0.414062 -1.4375 0.34375 -1.4375 C 0.28125 -1.4375 0.222656 -1.460938 0.171875 -1.515625 C 0.128906 -1.566406 0.109375 -1.625 0.109375 -1.6875 C 0.109375 -1.75 0.128906 -1.804688 0.171875 -1.859375 Z M 0.140625 -1.1875 L 0.140625 0 L 0.546875 0 L 0.546875 -1.1875 Z M 0.140625 -1.1875 "/>
            </g>
        </g>
    </g>
</svg>